<svg width="224" height="82" viewBox="0 0 285 82" fill="none" xmlns="http://www.w3.org/2000/svg">
<rect opacity="0.2" width="74.8323" height="74.8323" rx="37.4161" fill="#39e0fa"/>
<rect x="32.7383" y="31.1797" width="49.8882" height="49.8882" rx="24.9441" fill="#39e0fa"/>
<path d="M119.445 27.4688V30.9485H108.407V38.6188H117.013V42.0985H108.407V53.473H104.142V27.4688H119.445ZM125.568 30.1253C124.795 30.1253 124.146 29.8634 123.622 29.3396C123.098 28.8158 122.837 28.1672 122.837 27.394C122.837 26.6207 123.098 25.9722 123.622 25.4483C124.146 24.9245 124.795 24.6626 125.568 24.6626C126.316 24.6626 126.952 24.9245 127.476 25.4483C128 25.9722 128.262 26.6207 128.262 27.394C128.262 28.1672 128 28.8158 127.476 29.3396C126.952 29.8634 126.316 30.1253 125.568 30.1253ZM127.663 32.8567V53.473H123.398V32.8567H127.663ZM137.529 25.7851V53.473H133.263V25.7851H137.529ZM162.024 42.6598C162.024 43.433 161.974 44.1315 161.874 44.7551H146.122C146.247 46.4014 146.858 47.7234 147.956 48.7212C149.053 49.7189 150.4 50.2178 151.997 50.2178C154.291 50.2178 155.913 49.2575 156.861 47.3368H161.463C160.839 49.2325 159.704 50.7915 158.058 52.0138C156.437 53.2111 154.416 53.8098 151.997 53.8098C150.026 53.8098 148.255 53.3732 146.684 52.5002C145.137 51.6022 143.915 50.355 143.017 48.7586C142.144 47.1372 141.707 45.2664 141.707 43.1462C141.707 41.0259 142.131 39.1676 142.979 37.5712C143.852 35.9498 145.062 34.7026 146.609 33.8295C148.18 32.9565 149.976 32.52 151.997 32.52C153.942 32.52 155.676 32.944 157.197 33.7921C158.719 34.6402 159.904 35.8375 160.752 37.3841C161.6 38.9057 162.024 40.6642 162.024 42.6598ZM157.572 41.3128C157.547 39.7413 156.985 38.4816 155.888 37.5337C154.79 36.5859 153.431 36.1119 151.81 36.1119C150.338 36.1119 149.078 36.5859 148.031 37.5337C146.983 38.4567 146.359 39.7164 146.16 41.3128H157.572ZM186.988 27.4688V53.473H182.722V42.0985H170.487V53.473H166.222V27.4688H170.487V38.6188H182.722V27.4688H186.988ZM191.181 43.0713C191.181 41.001 191.605 39.1676 192.453 37.5712C193.326 35.9747 194.499 34.74 195.971 33.867C197.467 32.969 199.113 32.52 200.909 32.52C202.531 32.52 203.94 32.8443 205.137 33.4928C206.36 34.1164 207.333 34.9021 208.056 35.85V32.8567H212.359V53.473H208.056V50.4049C207.333 51.3777 206.347 52.1884 205.1 52.8369C203.853 53.4855 202.431 53.8098 200.835 53.8098C199.064 53.8098 197.442 53.3608 195.971 52.4628C194.499 51.5399 193.326 50.2677 192.453 48.6463C191.605 47 191.181 45.1417 191.181 43.0713ZM208.056 43.1462C208.056 41.7244 207.757 40.4896 207.158 39.442C206.584 38.3943 205.823 37.5961 204.876 37.0473C203.928 36.4986 202.905 36.2242 201.807 36.2242C200.71 36.2242 199.687 36.4986 198.739 37.0473C197.791 37.5712 197.018 38.3569 196.42 39.4045C195.846 40.4273 195.559 41.6495 195.559 43.0713C195.559 44.4931 195.846 45.7404 196.42 46.8129C197.018 47.8855 197.791 48.7087 198.739 49.2824C199.712 49.8312 200.735 50.1056 201.807 50.1056C202.905 50.1056 203.928 49.8312 204.876 49.2824C205.823 48.7336 206.584 47.9354 207.158 46.8878C207.757 45.8152 208.056 44.568 208.056 43.1462ZM225.931 49.6566L231.768 32.8567H236.295L228.438 53.473H223.349L215.529 32.8567H220.094L225.931 49.6566ZM258.415 42.6598C258.415 43.433 258.365 44.1315 258.265 44.7551H242.513C242.637 46.4014 243.249 47.7234 244.346 48.7212C245.444 49.7189 246.791 50.2178 248.387 50.2178C250.682 50.2178 252.303 49.2575 253.251 47.3368H257.853C257.23 49.2325 256.095 50.7915 254.448 52.0138C252.827 53.2111 250.807 53.8098 248.387 53.8098C246.416 53.8098 244.645 53.3732 243.074 52.5002C241.527 51.6022 240.305 50.355 239.407 48.7586C238.534 47.1372 238.098 45.2664 238.098 43.1462C238.098 41.0259 238.522 39.1676 239.37 37.5712C240.243 35.9498 241.453 34.7026 242.999 33.8295C244.571 32.9565 246.367 32.52 248.387 32.52C250.333 32.52 252.066 32.944 253.588 33.7921C255.109 34.6402 256.294 35.8375 257.142 37.3841C257.991 38.9057 258.415 40.6642 258.415 42.6598ZM253.962 41.3128C253.937 39.7413 253.376 38.4816 252.278 37.5337C251.181 36.5859 249.821 36.1119 248.2 36.1119C246.728 36.1119 245.469 36.5859 244.421 37.5337C243.373 38.4567 242.75 39.7164 242.55 41.3128H253.962ZM273.014 32.52C274.635 32.52 276.082 32.8567 277.354 33.5302C278.651 34.2037 279.662 35.2015 280.385 36.5235C281.108 37.8455 281.47 39.442 281.47 41.3128V53.473H277.242V41.9488C277.242 40.103 276.78 38.6936 275.858 37.7208C274.935 36.7231 273.675 36.2242 272.078 36.2242C270.482 36.2242 269.21 36.7231 268.262 37.7208C267.339 38.6936 266.878 40.103 266.878 41.9488V53.473H262.612V32.8567H266.878V35.2139C267.576 34.3658 268.462 33.7048 269.534 33.2309C270.632 32.7569 271.792 32.52 273.014 32.52Z" fill="#39e0fa"/>
</svg>
